<?xml version="1.0" standalone="no"?>
<!DOCTYPE svg PUBLIC "-//W3C//DTD SVG 20010904//EN"
 "http://www.w3.org/TR/2001/REC-SVG-20010904/DTD/svg10.dtd">
<svg version="1.0" xmlns="http://www.w3.org/2000/svg"
 width="1200.000000pt" height="1200.000000pt" viewBox="0 0 1200.000000 1200.000000"
 preserveAspectRatio="xMidYMid meet">
<metadata>
Created by potrace 1.11, written by Peter Selinger 2001-2013
</metadata>
<g transform="translate(0.000000,1200.000000) scale(0.100000,-0.100000)"
fill="#000000" stroke="none">
<path d="M6418 8940 c-12 -25 -25 -47 -28 -50 -11 -8 -34 -54 -32 -63 1 -4 -5
-10 -13 -13 -8 -4 -15 -15 -15 -25 0 -10 -5 -19 -11 -19 -5 0 -7 -5 -4 -10 3
-6 -1 -13 -9 -16 -9 -3 -14 -10 -11 -14 3 -4 -2 -13 -10 -20 -8 -7 -13 -16
-10 -20 3 -5 1 -11 -5 -15 -6 -4 -22 -27 -36 -53 -43 -81 -85 -155 -231 -411
-79 -137 -143 -254 -143 -260 0 -6 -4 -11 -8 -11 -16 0 -45 -78 -37 -97 5 -10
7 -21 7 -25 -1 -5 2 -8 8 -8 5 0 18 -15 27 -34 17 -32 85 -153 125 -221 10
-16 26 -46 36 -65 9 -19 23 -41 29 -48 7 -7 16 -24 19 -38 3 -13 10 -24 14
-24 4 0 15 -17 25 -37 27 -62 53 -106 67 -114 7 -5 9 -9 5 -9 -11 0 13 -43 30
-53 7 -5 11 -12 8 -18 -4 -5 -1 -9 5 -9 6 0 8 -4 5 -10 -3 -5 -1 -10 5 -10 6
0 9 -4 5 -9 -3 -6 2 -14 11 -19 9 -5 15 -11 14 -13 -4 -10 19 -56 34 -68 9 -7
13 -17 10 -22 -3 -5 0 -9 6 -9 6 0 8 -5 5 -10 -3 -6 1 -13 9 -16 9 -3 13 -10
10 -15 -3 -5 0 -9 5 -9 6 0 11 -4 11 -10 0 -5 21 -47 46 -93 l47 -83 643 0
642 0 31 51 c17 28 31 56 31 62 0 6 7 13 15 17 8 3 15 9 14 13 -3 18 2 32 14
45 15 15 40 59 58 101 6 15 16 27 22 27 6 0 7 3 4 6 -3 4 3 18 13 32 11 13 20
31 20 38 0 8 5 14 10 14 6 0 10 7 10 15 0 8 5 15 12 15 6 0 8 3 5 6 -4 4 2 19
13 34 11 15 24 39 30 54 5 14 14 26 20 26 5 0 9 3 8 8 -3 11 35 82 44 82 4 0
8 4 8 10 0 5 59 114 132 241 72 127 127 234 122 237 -6 4 -18 23 -28 42 -36
72 -49 95 -55 100 -3 3 -14 21 -24 40 -49 93 -59 110 -68 110 -6 0 -8 4 -5 8
3 5 -5 24 -16 43 -12 19 -35 59 -51 89 -16 30 -33 57 -36 60 -4 3 -15 22 -24
43 -10 20 -22 37 -28 37 -6 0 -8 4 -4 9 3 5 -2 17 -11 25 -8 9 -13 16 -9 16 3
0 -3 13 -14 29 -12 16 -21 36 -21 45 0 9 -4 16 -9 16 -11 0 -67 100 -64 112 2
4 -2 8 -8 8 -5 0 -7 5 -4 10 3 6 2 10 -4 10 -6 0 -18 17 -28 38 -9 20 -20 39
-24 42 -4 3 -13 17 -19 30 -6 14 -22 43 -35 65 -13 22 -27 48 -31 58 -3 9 -14
17 -23 18 -9 1 -301 2 -649 3 l-633 1 -21 -45z"/>
<path d="M4319 7729 c-11 -9 -19 -21 -19 -28 0 -6 -5 -11 -12 -11 -6 0 -9 -3
-6 -6 5 -5 -49 -104 -71 -130 -5 -7 -7 -15 -4 -18 4 -3 1 -6 -5 -6 -7 0 -12
-7 -12 -15 0 -8 -5 -15 -12 -15 -6 0 -9 -3 -5 -6 3 -3 -10 -32 -29 -64 -19
-32 -34 -63 -34 -68 0 -6 -3 -12 -8 -14 -4 -1 -99 -164 -211 -361 l-204 -358
16 -32 c18 -36 64 -118 126 -223 22 -39 41 -76 41 -83 0 -6 4 -11 9 -11 5 0
15 -16 22 -35 7 -19 16 -35 20 -35 4 0 13 -16 20 -35 7 -19 16 -35 20 -35 4 0
12 -15 20 -32 7 -18 15 -35 19 -38 3 -3 14 -22 25 -42 11 -21 23 -38 28 -38 4
0 6 -4 2 -9 -3 -5 2 -17 11 -25 8 -9 12 -16 7 -16 -4 0 0 -5 10 -11 9 -6 15
-14 12 -20 -4 -5 -1 -9 5 -9 6 0 9 -4 6 -8 -3 -5 2 -18 12 -28 9 -11 18 -26
20 -34 2 -8 8 -18 14 -21 5 -3 9 -8 7 -10 -1 -2 3 -13 10 -24 7 -11 45 -76 84
-145 l72 -125 644 0 643 0 34 60 c18 33 41 76 50 95 9 19 19 37 23 40 4 3 15
21 24 40 24 48 40 74 52 82 7 5 7 8 0 8 -6 0 -6 3 0 8 6 4 22 28 35 55 14 26
29 47 33 47 5 0 5 5 2 10 -3 6 -1 10 5 10 6 0 8 5 5 10 -3 6 1 13 9 16 9 3 14
10 11 14 -3 5 0 15 7 22 7 8 26 38 42 68 16 30 32 57 35 60 3 3 15 23 26 45
11 22 31 58 44 80 14 22 31 50 38 63 7 12 47 83 89 158 44 77 73 139 68 142
-6 4 -18 23 -28 42 -36 72 -49 95 -55 100 -3 3 -14 21 -24 40 -35 68 -50 95
-56 100 -3 3 -22 36 -41 74 -19 37 -41 70 -47 73 -7 3 -11 9 -8 13 3 5 -2 16
-11 24 -8 9 -13 16 -9 16 3 0 -3 13 -14 29 -12 16 -21 34 -21 39 0 6 -3 12 -7
14 -5 2 -17 21 -28 43 -11 22 -26 46 -33 53 -7 8 -10 18 -7 23 4 5 2 9 -3 9
-4 0 -19 19 -31 43 -13 23 -34 60 -47 82 -46 78 -78 140 -76 148 1 4 -1 7 -6
7 -4 0 -16 17 -27 38 -11 20 -29 51 -40 67 l-20 30 -634 0 c-569 0 -636 -2
-652 -16z"/>
<path d="M2180 6513 c0 -7 -4 -13 -8 -13 -5 0 -16 -18 -26 -40 -10 -22 -22
-40 -27 -40 -6 0 -7 -4 -4 -10 3 -5 1 -10 -5 -10 -6 0 -8 -4 -5 -10 3 -5 1
-10 -5 -10 -6 0 -8 -5 -5 -10 3 -6 -1 -13 -9 -16 -9 -3 -16 -14 -16 -24 0 -10
-6 -25 -14 -32 -7 -8 -24 -34 -36 -59 -13 -24 -27 -47 -32 -50 -5 -3 -9 -8 -8
-10 4 -8 -24 -59 -32 -59 -4 0 -7 -3 -6 -7 2 -5 -8 -26 -21 -48 -14 -22 -25
-43 -25 -47 -1 -4 -8 -16 -17 -26 -8 -10 -18 -25 -22 -34 -3 -9 -51 -96 -106
-192 -56 -96 -101 -179 -101 -183 0 -5 -11 -20 -24 -35 -14 -14 -23 -28 -20
-30 2 -3 -7 -21 -20 -40 -46 -68 -48 -61 93 -307 72 -126 131 -233 131 -240 0
-6 3 -11 8 -11 4 0 13 -15 21 -32 8 -18 18 -35 21 -38 4 -3 19 -27 34 -55 14
-27 42 -77 61 -110 19 -33 41 -71 47 -85 7 -14 15 -27 18 -30 3 -3 16 -25 29
-50 13 -25 31 -53 39 -62 8 -10 11 -18 6 -18 -5 0 0 -7 10 -15 11 -8 17 -15
13 -15 -4 0 7 -22 23 -49 17 -26 30 -53 30 -60 0 -6 3 -12 8 -12 4 -1 297 -3
650 -4 641 -1 644 -1 653 19 5 12 20 39 33 61 14 22 34 59 46 83 12 23 26 42
31 42 5 0 8 3 7 8 -2 12 15 46 34 66 9 10 15 22 13 26 -3 4 4 18 15 30 11 13
20 29 20 37 0 7 5 13 11 13 5 0 7 5 4 10 -3 6 1 13 9 16 9 3 14 10 11 14 -3 5
1 15 9 23 8 8 12 17 9 21 -3 3 2 8 11 12 9 3 16 14 16 24 0 10 7 23 15 30 8 6
17 22 21 33 3 12 13 30 22 40 8 9 11 17 6 17 -5 0 -4 4 2 8 6 4 24 32 41 62
17 30 78 138 136 239 l106 185 -22 40 c-12 23 -25 43 -28 46 -4 3 -9 15 -13
27 -4 13 -13 29 -19 36 -7 7 -21 31 -33 52 -44 85 -77 140 -88 147 -6 4 -7 8
-3 8 5 0 0 12 -10 28 -10 15 -28 44 -38 65 -11 20 -24 37 -29 37 -5 0 -6 3 -3
7 4 3 3 11 -2 17 -5 6 -19 29 -32 51 -12 22 -27 49 -33 60 -7 11 -22 35 -33
54 -12 19 -20 38 -17 43 3 4 1 8 -5 8 -6 0 -18 17 -28 38 -9 20 -23 43 -30 50
-7 8 -11 18 -8 23 4 5 2 9 -2 9 -5 0 -20 21 -33 48 -14 26 -28 49 -31 52 -3 3
-21 34 -40 70 -61 116 23 104 -709 104 -506 1 -640 -2 -640 -11z"/>
<path d="M6398 6453 c-18 -35 -37 -63 -41 -63 -5 0 -5 -4 -2 -10 3 -5 1 -10
-6 -10 -7 0 -10 -3 -6 -6 3 -3 -3 -15 -13 -27 -11 -11 -17 -24 -14 -29 3 -4 0
-8 -6 -8 -6 0 -8 -4 -5 -10 3 -5 3 -10 -2 -10 -4 0 -21 -27 -38 -60 -16 -33
-33 -60 -37 -60 -4 0 -8 -7 -8 -15 0 -9 -5 -21 -11 -28 -5 -7 -101 -172 -212
-367 -214 -374 -209 -363 -171 -411 6 -8 25 -39 41 -69 30 -54 96 -171 113
-200 42 -70 80 -140 80 -148 0 -6 4 -12 8 -14 9 -3 29 -37 57 -97 9 -18 25
-42 35 -54 11 -11 17 -24 14 -29 -3 -4 0 -8 6 -8 6 0 9 -4 6 -8 -3 -5 3 -18
12 -28 10 -10 18 -23 19 -28 0 -4 5 -15 12 -25 6 -9 19 -30 29 -47 9 -17 53
-94 97 -171 l79 -140 644 0 644 0 11 26 c6 14 14 28 18 31 3 3 23 37 44 75 21
39 42 73 47 76 5 3 9 9 9 13 -1 9 12 40 18 46 4 3 15 22 26 43 11 20 24 37 29
37 5 0 7 3 3 6 -3 3 5 24 19 45 13 21 24 42 24 47 0 5 11 22 24 37 14 16 23
32 20 36 -2 4 3 14 11 22 8 9 19 26 25 39 6 13 22 44 38 70 59 100 227 395
249 437 20 37 22 46 10 60 -7 9 -19 27 -25 41 -7 14 -24 43 -37 65 -14 22 -28
48 -32 58 -3 9 -9 17 -14 17 -5 0 -8 3 -7 8 4 11 -113 215 -131 229 -9 7 -12
13 -7 13 4 0 1 11 -8 24 -8 14 -25 41 -36 60 -11 20 -29 52 -40 71 -11 19 -17
35 -15 35 3 0 -4 9 -15 20 -12 12 -18 25 -15 30 4 6 2 10 -2 10 -11 0 -47 60
-36 60 4 0 3 4 -3 8 -12 9 -73 108 -77 125 -1 7 -5 14 -8 17 -7 5 -31 47 -81
137 -16 29 -35 56 -41 60 -6 4 -298 7 -649 7 l-637 1 -33 -62z"/>
<path d="M4319 5259 c-11 -9 -19 -21 -19 -28 0 -6 -5 -11 -12 -11 -6 0 -8 -3
-5 -6 4 -4 -2 -19 -13 -34 -11 -16 -20 -33 -20 -39 0 -6 -5 -11 -11 -11 -5 0
-7 -4 -4 -10 3 -5 3 -10 -2 -10 -4 0 -17 -18 -27 -40 -11 -22 -23 -40 -28 -40
-4 0 -8 -6 -8 -13 0 -19 -30 -77 -39 -77 -4 0 -13 -16 -20 -35 -7 -19 -17 -35
-22 -35 -5 0 -9 -5 -9 -11 0 -6 -67 -130 -150 -274 -82 -144 -150 -268 -150
-274 0 -6 -4 -11 -8 -11 -5 0 -17 -17 -28 -37 -10 -20 -27 -50 -36 -67 -16
-29 -21 -76 -8 -76 4 0 15 -17 27 -37 31 -58 133 -236 144 -253 5 -8 17 -32
26 -52 9 -21 19 -38 23 -38 4 0 13 -15 21 -32 7 -18 15 -35 18 -38 11 -9 42
-65 52 -92 6 -16 15 -28 21 -28 5 0 6 -4 3 -10 -3 -5 -1 -10 4 -10 6 0 11 -7
11 -15 0 -8 5 -15 11 -15 5 0 8 -4 4 -9 -3 -5 2 -16 10 -24 8 -9 15 -20 15
-26 0 -6 5 -11 11 -11 5 0 8 -4 5 -8 -3 -5 8 -28 25 -50 17 -23 27 -42 22 -42
-4 0 1 -7 11 -15 11 -8 17 -15 13 -15 -4 0 4 -18 18 -40 14 -23 30 -52 35 -65
5 -14 14 -25 20 -25 6 0 9 -4 5 -9 -3 -5 -1 -12 5 -16 5 -3 21 -30 35 -59 l25
-53 644 1 c354 1 646 3 649 6 7 8 71 123 87 155 8 17 23 40 34 53 11 12 16 22
12 22 -4 0 1 14 11 30 9 17 21 30 26 30 4 0 5 5 2 10 -3 6 -2 10 3 10 4 0 14
16 22 35 8 19 18 35 22 35 5 0 7 4 3 9 -3 6 2 14 11 19 9 5 16 12 15 15 -1 12
13 42 26 55 7 7 13 20 13 28 0 8 5 14 11 14 5 0 7 5 4 10 -3 6 1 13 9 16 9 3
13 10 10 15 -3 5 0 9 5 9 6 0 11 5 11 11 0 6 68 130 152 276 85 149 148 267
142 271 -5 4 -15 18 -22 32 -7 14 -26 48 -42 75 -16 28 -35 62 -41 78 -6 15
-15 27 -20 27 -5 0 -9 6 -9 13 0 6 -16 38 -34 69 -37 60 -75 128 -109 191 -12
20 -25 37 -29 37 -5 0 -7 4 -4 9 3 4 -6 23 -19 41 -14 19 -25 42 -25 52 0 10
-4 18 -9 18 -5 0 -18 17 -29 38 -27 52 -60 109 -77 136 -8 12 -12 26 -8 29 3
4 1 7 -5 7 -14 0 -44 55 -35 64 4 3 1 6 -5 6 -6 0 -17 12 -25 28 -46 88 -70
129 -83 141 -11 13 -109 15 -645 15 -568 1 -634 -1 -650 -15z"/>
<path d="M8540 5253 c0 -7 -4 -13 -9 -13 -5 0 -13 -10 -16 -22 -4 -13 -17 -33
-28 -45 -11 -13 -17 -23 -12 -23 4 0 0 -9 -10 -20 -10 -11 -15 -20 -12 -20 6
0 -31 -61 -52 -86 -6 -7 -7 -15 -4 -18 4 -3 0 -6 -7 -6 -7 0 -10 -3 -7 -7 4
-3 -1 -15 -10 -26 -10 -10 -16 -20 -14 -21 3 0 -7 -19 -21 -41 -14 -22 -41
-69 -60 -105 -20 -36 -99 -176 -177 -311 -77 -136 -141 -251 -141 -258 0 -6
-4 -11 -10 -11 -5 0 -17 -17 -26 -37 -15 -37 -15 -39 16 -98 17 -33 42 -78 56
-100 13 -22 32 -56 42 -75 9 -19 20 -37 23 -40 3 -3 31 -51 63 -108 31 -56 62
-113 69 -125 6 -12 17 -25 22 -29 7 -5 7 -8 0 -8 -6 0 -6 -3 1 -8 5 -4 18 -24
27 -44 10 -21 22 -38 28 -38 6 0 8 -4 4 -9 -3 -5 1 -16 9 -24 8 -8 12 -17 9
-21 -4 -3 -1 -6 5 -6 7 0 12 -6 12 -14 0 -7 7 -19 15 -26 8 -7 12 -16 9 -21
-3 -5 -1 -9 4 -9 6 0 13 -11 16 -25 4 -14 11 -25 17 -25 6 0 7 -5 4 -10 -3 -6
1 -13 9 -16 9 -3 13 -10 10 -15 -3 -5 0 -9 7 -9 7 0 9 -3 6 -6 -4 -4 2 -19 13
-34 11 -16 20 -33 20 -39 0 -6 5 -11 12 -11 6 0 9 -3 6 -6 -6 -5 26 -60 52
-91 6 -7 8 -13 5 -13 -4 0 3 -13 14 -28 l20 -29 642 1 642 1 11 25 c6 14 13
27 17 30 3 3 12 17 20 31 8 15 27 51 43 80 16 30 33 57 38 60 5 3 8 9 6 12 -1
4 5 15 14 26 9 11 14 22 11 25 -4 3 -1 6 6 6 7 0 10 4 6 10 -3 5 2 18 12 28
10 10 19 25 21 33 2 7 9 17 15 21 7 4 8 8 2 8 -5 0 -1 7 9 15 11 8 16 15 11
15 -4 0 0 9 10 20 10 11 15 20 11 20 -4 0 2 13 13 29 12 16 21 34 21 40 0 6 3
11 8 11 4 0 20 26 37 58 16 31 33 60 38 63 5 4 6 12 3 18 -4 6 -3 11 2 11 6 0
65 97 132 216 111 195 121 217 107 232 -8 9 -18 27 -21 40 -4 12 -11 22 -15
22 -4 0 -13 16 -20 35 -7 19 -16 35 -20 35 -4 0 -13 16 -20 35 -7 19 -16 35
-20 35 -4 0 -13 16 -21 35 -8 19 -17 35 -22 35 -4 0 -8 5 -8 12 0 14 -89 171
-102 179 -6 3 -8 9 -6 12 1 4 -5 15 -14 26 -9 11 -14 22 -11 25 4 3 1 6 -6 6
-7 0 -10 4 -6 9 3 6 -3 14 -12 20 -10 6 -14 11 -10 11 5 0 0 15 -11 33 -11 17
-29 48 -40 68 -40 71 -47 84 -58 99 -6 8 -27 44 -45 80 -19 36 -40 71 -46 78
-7 7 -16 24 -19 38 -3 13 -10 24 -14 24 -4 0 -12 12 -18 28 -5 15 -18 38 -29
51 l-20 25 -642 0 c-506 1 -641 -2 -641 -11z"/>
</g>
</svg>
