<?xml version="1.0" encoding="UTF-8" standalone="no"?>
<svg
   xmlns:dc="http://purl.org/dc/elements/1.1/"
   xmlns:cc="http://creativecommons.org/ns#"
   xmlns:rdf="http://www.w3.org/1999/02/22-rdf-syntax-ns#"
   xmlns:svg="http://www.w3.org/2000/svg"
   xmlns="http://www.w3.org/2000/svg"
   xmlns:sodipodi="http://sodipodi.sourceforge.net/DTD/sodipodi-0.dtd"
   xmlns:inkscape="http://www.inkscape.org/namespaces/inkscape"
   sodipodi:docname="se_final.svg"
   inkscape:version="1.0 (4035a4fb49, 2020-05-01)"
   id="svg8"
   version="1.1"
   viewBox="0 0 2700 800"
   height="800mm"
   width="2700mm">
  <defs
     id="defs2">
    <rect
       id="rect967"
       height="622.92859"
       width="1748.2843"
       y="101.77249"
       x="818.4696" />
    <rect
       id="rect961"
       height="591.93988"
       width="1110.6229"
       y="129.37231"
       x="854.91974" />
    <rect
       id="rect945"
       height="653.71332"
       width="650.49976"
       y="86.910896"
       x="71.332069" />
    <rect
       id="rect939"
       height="493.6716"
       width="567.03339"
       y="163.00462"
       x="111.10701" />
    <rect
       id="rect32"
       height="633.76385"
       width="687.82104"
       y="112.93589"
       x="58.981079" />
    <rect
       id="rect26"
       height="603.98767"
       width="573.06378"
       y="101.62595"
       x="127.06054" />
    <rect
       id="rect20"
       height="800"
       width="800"
       y="0"
       x="0" />
    <rect
       id="rect14"
       height="550.53857"
       width="564.12891"
       y="154.45715"
       x="121.03211" />
  </defs>
  <sodipodi:namedview
     inkscape:window-maximized="0"
     inkscape:window-y="579"
     inkscape:window-x="909"
     inkscape:window-height="867"
     inkscape:window-width="1184"
     showgrid="false"
     inkscape:document-rotation="0"
     inkscape:current-layer="layer1"
     inkscape:document-units="mm"
     inkscape:cy="560.61018"
     inkscape:cx="5037.6693"
     inkscape:zoom="0.0875"
     inkscape:pageshadow="2"
     inkscape:pageopacity="0.0"
     borderopacity="1.0"
     bordercolor="#666666"
     pagecolor="#ffffff"
     id="base" />
  <metadata
     id="metadata5">
    <rdf:RDF>
      <cc:Work
         rdf:about="">
        <dc:format>image/svg+xml</dc:format>
        <dc:type
           rdf:resource="http://purl.org/dc/dcmitype/StillImage" />
        <dc:title></dc:title>
      </cc:Work>
    </rdf:RDF>
  </metadata>
  <g
     id="layer1"
     inkscape:groupmode="layer"
     inkscape:label="图层 1">
    <rect
       y="0"
       x="0"
       height="800"
       width="800"
       id="rect10"
       style="fill:#0078b5;fill-opacity:1;fill-rule:evenodd;stroke-width:0.264583" />
    <text
       style="font-style:normal;font-weight:normal;font-size:10.5833px;line-height:1.25;font-family:sans-serif;white-space:pre;shape-inside:url(#rect14);fill:#000000;fill-opacity:1;stroke:none;"
       id="text12"
       xml:space="preserve" />
    <text
       style="font-style:normal;font-weight:normal;font-size:10.5833px;line-height:1.25;font-family:sans-serif;white-space:pre;shape-inside:url(#rect20);fill:#000000;fill-opacity:1;stroke:none;"
       id="text18"
       xml:space="preserve" />
    <text
       style="font-style:normal;font-weight:normal;font-size:10.5833px;line-height:1.25;font-family:sans-serif;white-space:pre;shape-inside:url(#rect26);fill:#000000;fill-opacity:1;stroke:none;"
       id="text24"
       xml:space="preserve" />
    <text
       style="font-style:normal;font-weight:normal;font-size:10.5833px;line-height:1.25;font-family:sans-serif;white-space:pre;shape-inside:url(#rect32);fill:#000000;fill-opacity:1;stroke:none;"
       id="text30"
       xml:space="preserve" />
    <text
       style="font-style:normal;font-weight:normal;font-size:10.5833px;line-height:1.25;font-family:sans-serif;white-space:pre;shape-inside:url(#rect939);fill:#000000;fill-opacity:1;stroke:none;"
       id="text937"
       xml:space="preserve" />
    <g
       style="font-style:normal;font-weight:normal;font-size:246.944px;line-height:1.25;font-family:sans-serif;white-space:pre;shape-inside:url(#rect945);fill:#000000;fill-opacity:1;stroke:none"
       id="text943"
       transform="translate(98.177839,9.4132312)"
       aria-label="Str.
Exp.">
      <path
         id="path49"
         style="font-style:normal;font-variant:normal;font-weight:600;font-stretch:normal;font-family:Nunito;-inkscape-font-specification:'Nunito Semi-Bold'"
         d="m 149.11939,302.78918 q -18.76774,0 -35.80688,-5.18582 -16.792191,-5.18583 -26.916895,-14.32276 -4.691936,-3.9511 -4.691936,-10.1247 0,-4.44499 2.46944,-7.40832 2.46944,-3.21027 5.926656,-3.21027 3.457216,0 8.396096,3.21027 21.978019,16.2983 50.129629,16.2983 19.75552,0 30.37412,-7.40832 10.61859,-7.40832 10.61859,-21.23718 0,-10.86554 -9.87776,-16.2983 -9.87776,-5.43277 -31.60883,-10.37165 -20.7433,-4.44499 -34.07828,-10.12471 -13.33497,-5.67971 -20.990237,-15.31052 -7.40832,-9.87776 -7.40832,-24.94135 0,-15.06358 8.149152,-26.66995 8.396095,-11.85331 23.212735,-18.27386 14.81664,-6.66748 33.83133,-6.66748 17.53302,0 32.34966,4.93888 14.81664,4.93888 25.18829,14.56969 4.93888,4.19805 4.93888,10.12471 0,4.19804 -2.71638,7.40832 -2.46944,3.21027 -5.92666,3.21027 -3.21027,0 -8.14915,-3.21027 -11.35942,-8.64304 -21.48413,-12.3472 -9.87776,-3.95111 -23.95357,-3.95111 -19.01468,0 -29.63328,7.90221 -10.61859,7.65526 -10.61859,21.48413 0,11.85331 9.38387,18.02691 9.38388,5.92666 30.12717,10.86554 21.73107,4.93888 35.06605,10.37164 13.58192,5.18583 21.48413,14.5697 8.14915,9.13693 8.14915,23.70662 0,14.81664 -8.3961,26.42301 -8.14915,11.35943 -23.21273,17.77997 -14.81664,6.1736 -34.32522,6.1736 z" />
      <path
         id="path51"
         style="font-style:normal;font-variant:normal;font-weight:600;font-stretch:normal;font-family:Nunito;-inkscape-font-specification:'Nunito Semi-Bold'"
         d="m 301.23636,283.03366 q 5.43277,0.49389 7.65526,2.96333 2.46944,2.22249 2.46944,6.42054 0,4.93888 -3.9511,7.65527 -3.70416,2.46944 -11.11248,1.97555 l -6.66749,-0.49389 q -20.00246,-1.48166 -29.88022,-12.10026 -9.87776,-10.86553 -9.87776,-31.85577 v -58.03184 h -14.81664 q -10.86554,0 -10.86554,-9.63082 0,-4.44499 2.71639,-6.91443 2.96332,-2.71638 8.14915,-2.71638 h 14.81664 v -25.43524 q 0,-5.67971 3.21027,-8.88998 3.45722,-3.21027 9.13693,-3.21027 5.67971,0 9.13693,3.21027 3.45721,3.21027 3.45721,8.88998 v 25.43524 h 24.44746 q 5.18582,0 7.90221,2.71638 2.96332,2.46944 2.96332,6.91443 0,4.69194 -2.96332,7.16138 -2.71639,2.46944 -7.90221,2.46944 h -24.44746 v 59.76045 q 0,11.60636 4.69194,17.03913 4.93888,5.43277 14.81664,6.1736 z" />
      <path
         id="path53"
         style="font-style:normal;font-variant:normal;font-weight:600;font-stretch:normal;font-family:Nunito;-inkscape-font-specification:'Nunito Semi-Bold'"
         d="m 392.60534,177.83552 q 11.85331,-0.74084 11.85331,10.1247 0,5.43277 -2.71638,8.14915 -2.71639,2.71639 -9.38388,3.21027 l -7.40832,0.74084 q -15.55747,1.48166 -23.21273,10.86553 -7.40832,9.38387 -7.40832,22.71885 v 56.55018 q 0,5.92665 -3.45722,8.88998 -3.45721,2.96333 -8.88998,2.96333 -5.43277,0 -9.13693,-2.96333 -3.45722,-2.96333 -3.45722,-8.88998 V 189.68883 q 0,-5.67971 3.45722,-8.64304 3.70416,-3.21027 9.13693,-3.21027 4.93888,0 8.14915,3.21027 3.45722,2.96333 3.45722,8.39609 v 11.85332 q 4.93888,-10.86554 14.32275,-16.54525 9.38387,-5.67971 21.23718,-6.66749 z" />
      <path
         id="path55"
         style="font-style:normal;font-variant:normal;font-weight:600;font-stretch:normal;font-family:Nunito;-inkscape-font-specification:'Nunito Semi-Bold';fill:#ffffff"
         d="m 431.86925,302.04835 q -6.66749,0 -11.35943,-4.44499 -4.44499,-4.445 -4.44499,-11.35943 0,-6.91443 4.44499,-11.35942 4.69194,-4.69194 11.35943,-4.69194 6.66748,0 11.11248,4.69194 4.44499,4.44499 4.44499,11.35942 0,6.91443 -4.44499,11.35943 -4.445,4.44499 -11.11248,4.44499 z" />
      <path
         id="path57"
         style="font-style:normal;font-variant:normal;font-weight:600;font-stretch:normal;font-family:Nunito;-inkscape-font-specification:'Nunito Semi-Bold';fill:#ffffff"
         d="m 104.17558,612.50693 q -5.926653,0 -9.383869,-3.21028 -3.210272,-3.45721 -3.210272,-9.13692 V 450.75861 q 0,-5.67972 3.210272,-8.88999 3.457216,-3.45721 9.383869,-3.45721 h 90.8754 q 5.67971,0 8.64304,2.71638 3.21027,2.71638 3.21027,7.65526 0,4.93888 -3.21027,7.65527 -2.96333,2.46944 -8.64304,2.46944 h -78.5282 v 54.82157 h 73.58932 q 5.67971,0 8.64304,2.71638 3.21027,2.71638 3.21027,7.65526 0,4.93888 -3.21027,7.65527 -2.96333,2.71638 -8.64304,2.71638 h -73.58932 v 57.53795 h 78.5282 q 11.85331,0 11.85331,10.12471 0,4.93888 -3.21027,7.65526 -2.96333,2.71639 -8.64304,2.71639 z" />
      <path
         id="path59"
         style="font-style:normal;font-variant:normal;font-weight:600;font-stretch:normal;font-family:Nunito;-inkscape-font-specification:'Nunito Semi-Bold';fill:#ffffff"
         d="m 334.57412,593.73918 q 3.70416,3.70416 3.70416,8.64304 0,4.69194 -3.45722,8.14915 -3.21027,3.21028 -7.90221,3.21028 -4.69193,0 -8.64304,-4.19805 l -37.78243,-42.47437 -37.53549,42.47437 q -3.9511,4.19805 -8.64304,4.19805 -4.69193,0 -8.14915,-3.45722 -3.21027,-3.45722 -3.21027,-8.14915 0,-4.69194 3.45721,-8.3961 l 39.01716,-42.96825 -37.0416,-41.23965 q -3.70416,-4.19805 -3.70416,-8.3961 0,-4.69193 3.45721,-7.90221 3.45722,-3.45721 7.90221,-3.45721 4.69194,0 8.64304,4.19805 l 35.80688,40.49881 35.80688,-40.49881 q 3.9511,-4.19805 8.88998,-4.19805 4.445,0 7.90221,3.45721 3.45722,3.21028 3.45722,7.90221 0,4.69194 -3.70416,8.3961 l -37.0416,41.23965 z" />
      <path
         id="path61"
         style="font-style:normal;font-variant:normal;font-weight:600;font-stretch:normal;font-family:Nunito;-inkscape-font-specification:'Nunito Semi-Bold';fill:#ffffff"
         d="m 427.42498,489.03493 q 15.55748,0 27.65773,7.9022 12.3472,7.90221 19.01469,22.22496 6.91443,14.32276 6.91443,33.0905 0,18.5208 -6.66749,32.59661 -6.66748,14.07581 -19.01468,21.73107 -12.10026,7.65526 -27.90468,7.65526 -13.58192,0 -23.95356,-5.67971 -10.37165,-5.92665 -15.80442,-16.79219 v 55.06851 q 0,5.18583 -3.45722,8.14915 -3.21027,3.21028 -8.64304,3.21028 -5.67971,0 -9.38387,-3.21028 -3.45721,-3.21027 -3.45721,-8.64304 V 501.62907 q 0,-5.43277 3.45721,-8.64304 3.45722,-3.45722 9.13693,-3.45722 5.43277,0 8.88998,3.45722 3.45722,3.21027 3.45722,8.64304 v 10.1247 q 5.43277,-10.86553 15.80442,-16.79219 10.37164,-5.92665 23.95356,-5.92665 z m -5.92665,105.44508 q 16.2983,0 25.18829,-10.86553 8.88998,-11.11248 8.88998,-31.36189 0,-20.49635 -9.13693,-31.85578 -8.88998,-11.35942 -24.94134,-11.35942 -16.29831,0 -25.18829,11.11248 -8.64304,11.11248 -8.64304,31.60883 0,20.49635 8.64304,31.60883 8.88998,11.11248 25.18829,11.11248 z" />
      <path
         id="path63"
         style="font-style:normal;font-variant:normal;font-weight:600;font-stretch:normal;font-family:Nunito;-inkscape-font-specification:'Nunito Semi-Bold'"
         d="m 520.7697,613.74165 q -6.66749,0 -11.35943,-4.445 -4.44499,-4.44499 -4.44499,-11.35942 0,-6.91443 4.44499,-11.35942 4.69194,-4.69194 11.35943,-4.69194 6.66749,0 11.11248,4.69194 4.44499,4.44499 4.44499,11.35942 0,6.91443 -4.44499,11.35942 -4.44499,4.445 -11.11248,4.445 z" />
    </g>
    <text
       style="font-style:normal;font-weight:normal;font-size:10.5833px;line-height:1.25;font-family:sans-serif;white-space:pre;shape-inside:url(#rect961);fill:#000000;fill-opacity:1;stroke:none;"
       id="text959"
       xml:space="preserve" />
    <g
       style="font-style:normal;font-weight:normal;font-size:282.222px;line-height:1.05;font-family:sans-serif;white-space:pre;shape-inside:url(#rect967);fill:#000000;fill-opacity:1;stroke:none"
       id="text965"
       transform="translate(132.81009,18.988136)"
       aria-label="Strategic.
Explorations.">
      <path
         id="path66"
         style="font-style:normal;font-variant:normal;font-weight:600;font-stretch:normal;font-size:282.222px;font-family:Nunito;-inkscape-font-specification:'Nunito Semi-Bold'"
         d="m 907.36868,320.27035 q -21.44888,0 -40.92219,-5.92666 -19.1911,-5.92666 -30.7622,-16.36887 -5.36222,-4.51556 -5.36222,-11.5711 0,-5.08 2.82222,-8.46666 2.82222,-3.66889 6.77333,-3.66889 3.95111,0 9.59555,3.66889 25.11775,18.62665 57.29106,18.62665 22.57776,0 34.71331,-8.46666 12.13554,-8.46666 12.13554,-24.27109 0,-12.41777 -11.28888,-18.62665 -11.28888,-6.20889 -36.12441,-11.85333 -23.70665,-5.07999 -38.94664,-11.5711 -15.23998,-6.4911 -23.98887,-17.49776 -8.46665,-11.28888 -8.46665,-28.50442 0,-17.21554 9.31332,-30.47998 9.59555,-13.54665 26.52887,-20.88442 16.93332,-7.62 38.66441,-7.62 20.03776,0 36.97108,5.64444 16.93332,5.64444 28.78664,16.6511 5.64444,4.79777 5.64444,11.5711 0,4.79777 -3.10444,8.46666 -2.82222,3.66889 -6.77333,3.66889 -3.66888,0 -9.31332,-3.66889 -12.98221,-9.87777 -24.55332,-14.1111 -11.28888,-4.51555 -27.37553,-4.51555 -21.73109,0 -33.86664,9.0311 -12.13554,8.74888 -12.13554,24.55332 0,13.54665 10.72443,20.6022 10.72444,6.77333 34.43109,12.41777 24.83553,5.64444 40.07552,11.85332 15.52221,5.92666 24.55331,16.6511 9.31333,10.44221 9.31333,27.09331 0,16.93332 -9.59555,30.19775 -9.31333,12.98221 -26.52887,20.31998 -16.93332,7.05555 -39.22885,7.05555 z" />
      <path
         id="path68"
         style="font-style:normal;font-variant:normal;font-weight:600;font-stretch:normal;font-size:282.222px;font-family:Nunito;-inkscape-font-specification:'Nunito Semi-Bold'"
         d="m 1081.2168,297.69259 q 6.2089,0.56445 8.7489,3.38667 2.8222,2.54 2.8222,7.33777 0,5.64444 -4.5155,8.74888 -4.2334,2.82222 -12.7,2.25778 l -7.62,-0.56445 q -22.86,-1.69333 -34.1489,-13.82887 -11.2889,-12.41777 -11.2889,-36.40664 v -66.32217 h -16.9333 q -12.41776,0 -12.41776,-11.00665 0,-5.08 3.10444,-7.90222 3.38667,-3.10444 9.31332,-3.10444 h 16.9333 v -29.06887 q 0,-6.4911 3.6689,-10.15999 3.9511,-3.66888 10.4422,-3.66888 6.4911,0 10.4422,3.66888 3.9511,3.66889 3.9511,10.15999 v 29.06887 h 27.94 q 5.9267,0 9.0311,3.10444 3.3867,2.82222 3.3867,7.90222 0,5.36221 -3.3867,8.18443 -3.1044,2.82222 -9.0311,2.82222 h -27.94 v 68.29772 q 0,13.26444 5.3623,19.47332 5.6444,6.20888 16.9333,7.05555 z" />
      <path
         id="path70"
         style="font-style:normal;font-variant:normal;font-weight:600;font-stretch:normal;font-size:282.222px;font-family:Nunito;-inkscape-font-specification:'Nunito Semi-Bold'"
         d="m 1185.6386,177.46603 q 13.5466,-0.84667 13.5466,11.5711 0,6.20888 -3.1044,9.31333 -3.1044,3.10444 -10.7244,3.66888 l -8.4667,0.84667 q -17.78,1.69333 -26.5289,12.41777 -8.4666,10.72443 -8.4666,25.96442 v 64.62883 q 0,6.77333 -3.9511,10.15999 -3.9511,3.38667 -10.16,3.38667 -6.2089,0 -10.4422,-3.38667 -3.9511,-3.38666 -3.9511,-10.15999 V 191.01268 q 0,-6.4911 3.9511,-9.87776 4.2333,-3.66889 10.4422,-3.66889 5.6444,0 9.3133,3.66889 3.9511,3.38666 3.9511,9.59554 v 13.54666 q 5.6444,-12.41777 16.3689,-18.90888 10.7244,-6.4911 24.2711,-7.61999 z" />
      <path
         id="path72"
         style="font-style:normal;font-variant:normal;font-weight:600;font-stretch:normal;font-size:282.222px;font-family:Nunito;-inkscape-font-specification:'Nunito Semi-Bold'"
         d="m 1273.6916,176.90159 q 27.3755,0 40.6399,13.82887 13.5467,13.82888 13.5467,42.05108 v 73.09549 q 0,6.49111 -3.6689,10.15999 -3.6689,3.38667 -10.16,3.38667 -6.2089,0 -9.8778,-3.66889 -3.6689,-3.66888 -3.6689,-9.87777 v -10.44221 q -5.3622,11.85332 -16.0866,18.34443 -10.4422,6.20888 -24.5533,6.20888 -13.5467,0 -24.8356,-5.36222 -11.0066,-5.64444 -17.4977,-15.23998 -6.4911,-9.59555 -6.4911,-21.7311 -0.2823,-15.23998 7.62,-23.70664 7.9022,-8.74888 25.6822,-12.41777 17.7799,-3.95111 49.3888,-3.95111 h 6.4911 v -8.18444 q 0,-15.80443 -6.4911,-22.85998 -6.4911,-7.05555 -20.8844,-7.05555 -9.8778,0 -18.6267,2.54 -8.7488,2.54 -19.1911,7.33777 -7.62,4.23333 -10.7244,4.23333 -4.2333,0 -7.0555,-3.10444 -2.54,-3.10444 -2.54,-7.90221 0,-4.23333 2.2577,-7.33778 2.54,-3.38666 7.9022,-6.4911 9.8778,-5.36222 23.1423,-8.46666 13.2644,-3.38666 25.6822,-3.38666 z m -8.7489,121.91989 q 15.5222,0 25.3999,-10.44221 9.8778,-10.72444 9.8778,-27.37553 v -7.33777 h -5.08 q -22.0133,0 -33.8666,1.97555 -11.8533,1.97555 -16.9333,6.77333 -5.08,4.51555 -5.08,13.26443 0,10.15999 7.3377,16.6511 7.3378,6.4911 18.3445,6.4911 z" />
      <path
         id="path74"
         style="font-style:normal;font-variant:normal;font-weight:600;font-stretch:normal;font-size:282.222px;font-family:Nunito;-inkscape-font-specification:'Nunito Semi-Bold'"
         d="m 1434.2758,297.69259 q 6.2089,0.56445 8.7489,3.38667 2.8222,2.54 2.8222,7.33777 0,5.64444 -4.5155,8.74888 -4.2334,2.82222 -12.7,2.25778 l -7.62,-0.56445 q -22.86,-1.69333 -34.1489,-13.82887 -11.2889,-12.41777 -11.2889,-36.40664 v -66.32217 h -16.9333 q -12.4178,0 -12.4178,-11.00665 0,-5.08 3.1045,-7.90222 3.3867,-3.10444 9.3133,-3.10444 h 16.9333 v -29.06887 q 0,-6.4911 3.6689,-10.15999 3.9511,-3.66888 10.4422,-3.66888 6.4911,0 10.4422,3.66888 3.9512,3.66889 3.9512,10.15999 v 29.06887 h 27.9399 q 5.9267,0 9.0311,3.10444 3.3867,2.82222 3.3867,7.90222 0,5.36221 -3.3867,8.18443 -3.1044,2.82222 -9.0311,2.82222 h -27.9399 v 68.29772 q 0,13.26444 5.3622,19.47332 5.6444,6.20888 16.9333,7.05555 z" />
      <path
         id="path76"
         style="font-style:normal;font-variant:normal;font-weight:600;font-stretch:normal;font-size:282.222px;font-family:Nunito;-inkscape-font-specification:'Nunito Semi-Bold'"
         d="m 1574.2576,283.29927 q 3.9511,0 6.4911,3.10445 2.54,3.10444 2.54,7.90221 0,8.18444 -10.16,13.82888 -9.8778,5.64444 -21.7311,8.74888 -11.5711,3.10444 -22.2955,3.10444 -32.7378,0 -51.6467,-18.90887 -18.9088,-19.1911 -18.9088,-52.21107 0,-21.16665 8.1844,-37.53552 8.4667,-16.36888 23.4244,-25.39998 15.24,-9.0311 34.4311,-9.0311 27.6578,0 43.7444,17.77998 16.0867,17.77999 16.0867,47.97774 0,11.28888 -10.16,11.28888 h -87.2066 q 2.8222,43.7444 42.0511,43.7444 10.4422,0 18.0622,-2.82222 7.62,-2.82221 16.0866,-7.33777 0.8467,-0.56444 4.5156,-2.25777 3.9511,-1.97556 6.4911,-1.97556 z m -49.1067,-85.51326 q -16.3688,0 -26.2466,10.44222 -9.8778,10.44221 -11.8533,29.35108 h 72.8133 q -0.8467,-19.19109 -9.8778,-29.35108 -8.7489,-10.44222 -24.8356,-10.44222 z" />
      <path
         id="path78"
         style="font-style:normal;font-variant:normal;font-weight:600;font-stretch:normal;font-size:282.222px;font-family:Nunito;-inkscape-font-specification:'Nunito Semi-Bold'"
         d="m 1729.7617,177.46603 q 6.4911,0 10.16,3.95111 3.9511,3.66888 3.9511,9.87777 v 115.71101 q 0,31.60886 -16.9333,47.69552 -16.6511,16.08665 -49.3889,16.08665 -30.48,0 -50.7999,-11.5711 -10.4423,-5.92666 -10.4423,-14.1111 0,-4.79778 2.54,-7.90222 2.8223,-3.10444 6.7734,-3.10444 3.6689,0 11.5711,4.23333 10.16,4.79777 18.9088,7.33777 8.7489,2.82222 20.8845,2.82222 38.9466,0 38.9466,-39.22885 v -21.7311 q -5.9267,12.41777 -18.0622,19.47332 -12.1355,6.77333 -28.2222,6.77333 -18.0622,0 -32.1733,-8.46666 -14.1111,-8.46666 -22.0133,-23.98887 -7.62,-15.52221 -7.62,-35.84219 0,-20.31999 7.9022,-35.84219 7.9022,-15.52221 21.7311,-23.98887 14.1111,-8.74888 32.1733,-8.74888 15.8044,0 27.6578,6.77332 12.1355,6.77333 18.3444,19.1911 v -11.85333 q 0,-6.20888 3.6689,-9.87776 3.9511,-3.66889 10.4422,-3.66889 z m -53.34,113.73546 q 18.3445,0 28.7867,-12.13555 10.4422,-12.13554 10.4422,-33.58441 0,-21.16665 -10.4422,-33.3022 -10.16,-12.41776 -28.7867,-12.41776 -18.6266,0 -29.3511,12.13554 -10.4422,12.13555 -10.4422,33.58442 0,21.44887 10.7245,33.58441 10.7244,12.13555 29.0688,12.13555 z" />
      <path
         id="path80"
         style="font-style:normal;font-variant:normal;font-weight:600;font-stretch:normal;font-size:282.222px;font-family:Nunito;-inkscape-font-specification:'Nunito Semi-Bold'"
         d="m 1798.0592,319.42369 q -6.2089,0 -10.4422,-3.38667 -3.9511,-3.38666 -3.9511,-10.15999 V 191.29491 q 0,-6.77333 3.9511,-10.15999 4.2333,-3.66889 10.4422,-3.66889 6.2089,0 10.16,3.66889 3.9511,3.38666 3.9511,10.15999 v 114.58212 q 0,6.77333 -3.9511,10.15999 -3.9511,3.38667 -10.16,3.38667 z m 0,-169.61542 q -8.1844,0 -12.9822,-4.51555 -4.7978,-4.51555 -4.7978,-11.85332 0,-7.33777 4.7978,-11.5711 4.7978,-4.51555 12.9822,-4.51555 7.9022,0 12.7,4.51555 5.08,4.23333 5.08,11.5711 0,7.33777 -4.7978,11.85332 -4.7978,4.51555 -12.9822,4.51555 z" />
      <path
         id="path82"
         style="font-style:normal;font-variant:normal;font-weight:600;font-stretch:normal;font-size:282.222px;font-family:Nunito;-inkscape-font-specification:'Nunito Semi-Bold'"
         d="m 1910.9476,319.98813 q -20.0377,0 -35.2777,-8.74888 -14.9578,-8.74888 -23.4244,-24.83553 -8.1845,-16.08666 -8.1845,-37.25331 0,-21.44887 8.4667,-37.81774 8.7489,-16.36888 24.2711,-25.39998 15.5222,-9.0311 35.5599,-9.0311 10.7245,0 21.4489,3.10444 11.0067,3.10444 19.4733,8.46666 9.0311,6.20888 9.0311,14.39332 0,4.79777 -2.54,8.18444 -2.54,3.10444 -6.4911,3.10444 -2.54,0 -5.08,-1.12889 -2.54,-1.41111 -6.4911,-3.95111 -7.0555,-4.51555 -13.2644,-6.77333 -5.9267,-2.53999 -14.3933,-2.53999 -19.1911,0 -29.9156,12.98221 -10.4422,12.98221 -10.4422,36.12441 0,23.1422 10.4422,35.84219 10.4423,12.41777 29.6334,12.41777 8.4666,0 14.9577,-2.54 6.4911,-2.53999 13.2645,-6.77332 3.1044,-1.97556 6.2088,-3.38667 3.1045,-1.41111 5.6445,-1.41111 3.9511,0 6.4911,3.38667 2.54,3.10444 2.54,7.90221 0,3.95111 -2.2578,7.33777 -1.9755,3.10444 -7.0555,6.49111 -8.4667,5.64444 -19.7556,8.74888 -11.2889,3.10444 -22.86,3.10444 z" />
      <path
         id="path84"
         style="font-style:normal;font-variant:normal;font-weight:600;font-stretch:normal;font-size:282.222px;font-family:Nunito;-inkscape-font-specification:'Nunito Semi-Bold'"
         d="m 2004.9271,319.42369 q -7.62,0 -12.9822,-5.08 -5.08,-5.07999 -5.08,-12.98221 0,-7.90222 5.08,-12.98221 5.3622,-5.36222 12.9822,-5.36222 7.62,0 12.7,5.36222 5.08,5.07999 5.08,12.98221 0,7.90222 -5.08,12.98221 -5.08,5.08 -12.7,5.08 z" />
      <path
         id="path86"
         style="font-style:normal;font-variant:normal;font-weight:600;font-stretch:normal;font-size:282.222px;font-family:Nunito;-inkscape-font-specification:'Nunito Semi-Bold'"
         d="m 856.00427,617.78943 q -6.77332,0 -10.72443,-3.66888 -3.66889,-3.95111 -3.66889,-10.44222 v -170.7443 q 0,-6.4911 3.66889,-10.15999 3.95111,-3.95111 10.72443,-3.95111 h 103.85769 q 6.49111,0 9.87777,3.10445 3.66889,3.10444 3.66889,8.74888 0,5.64444 -3.66889,8.74888 -3.38666,2.82222 -9.87777,2.82222 h -89.74659 v 62.65328 h 84.10215 q 6.49111,0 9.87777,3.10444 3.66889,3.10444 3.66889,8.74888 0,5.64444 -3.66889,8.74888 -3.38666,3.10445 -9.87777,3.10445 h -84.10215 v 65.75772 h 89.74659 q 13.54666,0 13.54666,11.5711 0,5.64444 -3.66889,8.74888 -3.38666,3.10444 -9.87777,3.10444 z" />
      <path
         id="path88"
         style="font-style:normal;font-variant:normal;font-weight:600;font-stretch:normal;font-size:282.222px;font-family:Nunito;-inkscape-font-specification:'Nunito Semi-Bold'"
         d="m 1119.3171,596.34056 q 4.2334,4.23333 4.2334,9.87777 0,5.36222 -3.9511,9.31333 -3.6689,3.66888 -9.0311,3.66888 -5.3623,0 -9.8778,-4.79777 l -43.18,-48.54218 -42.8977,48.54218 q -4.5156,4.79777 -9.8778,4.79777 -5.36221,0 -9.31332,-3.9511 -3.66888,-3.95111 -3.66888,-9.31333 0,-5.36222 3.9511,-9.59555 l 44.5911,-49.10662 -42.33332,-47.13107 q -4.23333,-4.79778 -4.23333,-9.59555 0,-5.36222 3.95111,-9.03111 3.95114,-3.9511 9.03114,-3.9511 5.3622,0 9.8777,4.79777 l 40.9222,46.28441 40.9222,-46.28441 q 4.5156,-4.79777 10.16,-4.79777 5.08,0 9.0311,3.9511 3.9511,3.66889 3.9511,9.03111 0,5.36222 -4.2333,9.59555 l -42.3333,47.13107 z" />
      <path
         id="path90"
         style="font-style:normal;font-variant:normal;font-weight:600;font-stretch:normal;font-size:282.222px;font-family:Nunito;-inkscape-font-specification:'Nunito Semi-Bold'"
         d="m 1225.4325,476.67844 q 17.78,0 31.6089,9.0311 14.1111,9.03111 21.7311,25.39998 7.9022,16.36888 7.9022,37.81775 0,21.16665 -7.62,37.2533 -7.62,16.08665 -21.7311,24.83554 -13.8289,8.74888 -31.8911,8.74888 -15.5222,0 -27.3755,-6.49111 -11.8534,-6.77333 -18.0622,-19.19109 v 62.9355 q 0,5.92666 -3.9511,9.31332 -3.6689,3.66889 -9.8778,3.66889 -6.4911,0 -10.7245,-3.66889 -3.9511,-3.66888 -3.9511,-9.87776 V 491.07176 q 0,-6.20888 3.9511,-9.87777 3.9512,-3.95111 10.4423,-3.95111 6.2088,0 10.16,3.95111 3.9511,3.66889 3.9511,9.87777 v 11.5711 q 6.2088,-12.41776 18.0622,-19.19109 11.8533,-6.77333 27.3755,-6.77333 z m -6.7733,120.50879 q 18.6266,0 28.7866,-12.41777 10.16,-12.69999 10.16,-35.84219 0,-23.42443 -10.4422,-36.40664 -10.16,-12.98221 -28.5044,-12.98221 -18.6267,0 -28.7867,12.69999 -9.8777,12.69999 -9.8777,36.12441 0,23.42443 9.8777,36.12442 10.16,12.69999 28.7867,12.69999 z" />
      <path
         id="path92"
         style="font-style:normal;font-variant:normal;font-weight:600;font-stretch:normal;font-size:282.222px;font-family:Nunito;-inkscape-font-specification:'Nunito Semi-Bold'"
         d="m 1332.6767,619.20054 q -6.2089,0 -10.4422,-3.38666 -3.9511,-3.38666 -3.9511,-10.15999 V 431.2407 q 0,-6.77333 3.9511,-10.15999 4.2333,-3.66889 10.4422,-3.66889 6.2089,0 10.16,3.66889 3.9511,3.38666 3.9511,10.15999 v 174.41319 q 0,6.77333 -3.9511,10.15999 -3.9511,3.38666 -10.16,3.38666 z" />
      <path
         id="path94"
         style="font-style:normal;font-variant:normal;font-weight:600;font-stretch:normal;font-size:282.222px;font-family:Nunito;-inkscape-font-specification:'Nunito Semi-Bold'"
         d="m 1446.4118,619.76499 q -20.32,0 -35.8422,-8.74888 -15.24,-8.74889 -23.7066,-24.83554 -8.1845,-16.36887 -8.1845,-37.81775 0,-21.73109 8.1845,-37.81774 8.4666,-16.36888 23.7066,-25.11776 15.5222,-8.74888 35.8422,-8.74888 20.32,0 35.56,8.74888 15.5222,8.74888 23.7066,25.11776 8.4667,16.08665 8.4667,37.81774 0,21.44888 -8.4667,37.81775 -8.1844,16.08665 -23.7066,24.83554 -15.24,8.74888 -35.56,8.74888 z m 0,-22.57776 q 18.9089,0 28.7866,-12.41777 10.16,-12.41777 10.16,-36.40664 0,-23.70664 -10.16,-36.12441 -10.16,-12.69999 -28.7866,-12.69999 -18.6267,0 -28.7866,12.69999 -10.16,12.41777 -10.16,36.12441 0,23.98887 9.8777,36.40664 10.16,12.41777 29.0689,12.41777 z" />
      <path
         id="path96"
         style="font-style:normal;font-variant:normal;font-weight:600;font-stretch:normal;font-size:282.222px;font-family:Nunito;-inkscape-font-specification:'Nunito Semi-Bold'"
         d="m 1618.0025,477.24288 q 13.5467,-0.84666 13.5467,11.57111 0,6.20888 -3.1045,9.31332 -3.1044,3.10444 -10.7244,3.66889 l -8.4666,0.84666 q -17.78,1.69334 -26.5289,12.41777 -8.4667,10.72444 -8.4667,25.96442 v 64.62884 q 0,6.77333 -3.9511,10.15999 -3.9511,3.38666 -10.16,3.38666 -6.2089,0 -10.4422,-3.38666 -3.9511,-3.38666 -3.9511,-10.15999 V 490.78954 q 0,-6.49111 3.9511,-9.87777 4.2333,-3.66889 10.4422,-3.66889 5.6445,0 9.3134,3.66889 3.9511,3.38666 3.9511,9.59555 v 13.54665 q 5.6444,-12.41776 16.3688,-18.90887 10.7245,-6.49111 24.2711,-7.61999 z" />
      <path
         id="path98"
         style="font-style:normal;font-variant:normal;font-weight:600;font-stretch:normal;font-size:282.222px;font-family:Nunito;-inkscape-font-specification:'Nunito Semi-Bold'"
         d="m 1706.0555,476.67844 q 27.3755,0 40.64,13.82888 13.5466,13.82888 13.5466,42.05107 v 73.0955 q 0,6.4911 -3.6689,10.15999 -3.6688,3.38666 -10.16,3.38666 -6.2088,0 -9.8777,-3.66888 -3.6689,-3.66889 -3.6689,-9.87777 v -10.44222 q -5.3622,11.85333 -16.0867,18.34443 -10.4422,6.20889 -24.5533,6.20889 -13.5466,0 -24.8355,-5.36222 -11.0067,-5.64444 -17.4978,-15.23999 -6.4911,-9.59555 -6.4911,-21.73109 -0.2822,-15.23999 7.62,-23.70665 7.9022,-8.74888 25.6822,-12.41776 17.78,-3.95111 49.3889,-3.95111 h 6.4911 v -8.18444 q 0,-15.80443 -6.4911,-22.85998 -6.4911,-7.05555 -20.8845,-7.05555 -9.8777,0 -18.6266,2.54 -8.7489,2.54 -19.1911,7.33777 -7.62,4.23333 -10.7244,4.23333 -4.2334,0 -7.0556,-3.10444 -2.54,-3.10444 -2.54,-7.90222 0,-4.23333 2.2578,-7.33777 2.54,-3.38666 7.9022,-6.49111 9.8778,-5.36221 23.1422,-8.46666 13.2644,-3.38666 25.6822,-3.38666 z m -8.7489,121.9199 q 15.5222,0 25.4,-10.44222 9.8778,-10.72443 9.8778,-27.37553 v -7.33777 h -5.08 q -22.0133,0 -33.8667,1.97555 -11.8533,1.97556 -16.9333,6.77333 -5.08,4.51555 -5.08,13.26444 0,10.15999 7.3378,16.65109 7.3378,6.49111 18.3444,6.49111 z" />
      <path
         id="path100"
         style="font-style:normal;font-variant:normal;font-weight:600;font-stretch:normal;font-size:282.222px;font-family:Nunito;-inkscape-font-specification:'Nunito Semi-Bold'"
         d="m 1866.6398,597.46945 q 6.2089,0.56444 8.7489,3.38666 2.8222,2.54 2.8222,7.33778 0,5.64444 -4.5155,8.74888 -4.2334,2.82222 -12.7,2.25777 l -7.62,-0.56444 q -22.86,-1.69333 -34.1489,-13.82888 -11.2889,-12.41777 -11.2889,-36.40663 v -66.32217 h -16.9333 q -12.4177,0 -12.4177,-11.00666 0,-5.07999 3.1044,-7.90221 3.3867,-3.10445 9.3133,-3.10445 h 16.9333 v -29.06886 q 0,-6.49111 3.6689,-10.15999 3.9511,-3.66889 10.4422,-3.66889 6.4912,0 10.4423,3.66889 3.9511,3.66888 3.9511,10.15999 v 29.06886 h 27.9399 q 5.9267,0 9.0311,3.10445 3.3867,2.82222 3.3867,7.90221 0,5.36222 -3.3867,8.18444 -3.1044,2.82222 -9.0311,2.82222 h -27.9399 v 68.29772 q 0,13.26443 5.3622,19.47332 5.6444,6.20888 16.9333,7.05555 z" />
      <path
         id="path102"
         style="font-style:normal;font-variant:normal;font-weight:600;font-stretch:normal;font-size:282.222px;font-family:Nunito;-inkscape-font-specification:'Nunito Semi-Bold'"
         d="m 1913.2061,619.20054 q -6.2089,0 -10.4422,-3.38666 -3.9511,-3.38666 -3.9511,-10.15999 V 491.07176 q 0,-6.77333 3.9511,-10.15999 4.2333,-3.66889 10.4422,-3.66889 6.2089,0 10.16,3.66889 3.9511,3.38666 3.9511,10.15999 v 114.58213 q 0,6.77333 -3.9511,10.15999 -3.9511,3.38666 -10.16,3.38666 z m 0,-169.61541 q -8.1844,0 -12.9822,-4.51555 -4.7978,-4.51555 -4.7978,-11.85332 0,-7.33778 4.7978,-11.57111 4.7978,-4.51555 12.9822,-4.51555 7.9022,0 12.7,4.51555 5.08,4.23333 5.08,11.57111 0,7.33777 -4.7978,11.85332 -4.7978,4.51555 -12.9822,4.51555 z" />
      <path
         id="path104"
         style="font-style:normal;font-variant:normal;font-weight:600;font-stretch:normal;font-size:282.222px;font-family:Nunito;-inkscape-font-specification:'Nunito Semi-Bold'"
         d="m 2026.9411,619.76499 q -20.32,0 -35.8422,-8.74888 -15.24,-8.74889 -23.7066,-24.83554 -8.1845,-16.36887 -8.1845,-37.81775 0,-21.73109 8.1845,-37.81774 8.4666,-16.36888 23.7066,-25.11776 15.5222,-8.74888 35.8422,-8.74888 20.32,0 35.56,8.74888 15.5222,8.74888 23.7066,25.11776 8.4667,16.08665 8.4667,37.81774 0,21.44888 -8.4667,37.81775 -8.1844,16.08665 -23.7066,24.83554 -15.24,8.74888 -35.56,8.74888 z m 0,-22.57776 q 18.9089,0 28.7866,-12.41777 10.16,-12.41777 10.16,-36.40664 0,-23.70664 -10.16,-36.12441 -10.16,-12.69999 -28.7866,-12.69999 -18.6267,0 -28.7867,12.69999 -10.1599,12.41777 -10.1599,36.12441 0,23.98887 9.8777,36.40664 10.16,12.41777 29.0689,12.41777 z" />
      <path
         id="path106"
         style="font-style:normal;font-variant:normal;font-weight:600;font-stretch:normal;font-size:282.222px;font-family:Nunito;-inkscape-font-specification:'Nunito Semi-Bold'"
         d="m 2200.5074,476.67844 q 49.3888,0 49.3888,55.59773 v 73.37772 q 0,6.4911 -3.9511,10.15999 -3.6689,3.38666 -10.4422,3.38666 -6.4911,0 -10.4422,-3.66888 -3.6689,-3.66889 -3.6689,-9.87777 v -71.96661 q 0,-17.49776 -7.0555,-25.6822 -6.7734,-8.18444 -21.4489,-8.18444 -17.2155,0 -27.6578,10.72444 -10.4422,10.72443 -10.4422,28.78664 v 66.32217 q 0,6.20888 -3.9511,9.87777 -3.6689,3.66888 -10.16,3.66888 -6.4911,0 -10.4422,-3.66888 -3.9511,-3.66889 -3.9511,-9.87777 V 490.78954 q 0,-5.92666 3.9511,-9.59555 4.2333,-3.95111 10.4422,-3.95111 6.2089,0 9.8778,3.66889 3.6689,3.66889 3.6689,9.59555 v 11.5711 q 6.7733,-12.41777 18.9089,-18.90887 12.1355,-6.49111 27.3755,-6.49111 z" />
      <path
         id="path108"
         style="font-style:normal;font-variant:normal;font-weight:600;font-stretch:normal;font-size:282.222px;font-family:Nunito;-inkscape-font-specification:'Nunito Semi-Bold'"
         d="m 2336.8202,619.76499 q -28.7867,0 -47.1311,-11.85333 -5.08,-3.10444 -7.3378,-6.4911 -1.9755,-3.38667 -1.9755,-7.62 0,-4.51555 2.54,-7.61999 2.54,-3.10444 6.4911,-3.10444 3.6689,0 11.5711,4.51555 8.4667,4.51555 16.3689,7.33777 8.1844,2.82222 20.32,2.82222 13.5466,0 21.1666,-4.79777 7.62,-4.79778 7.62,-13.54666 0,-5.64444 -3.1044,-9.0311 -2.8223,-3.38666 -10.16,-5.92666 -7.3378,-2.82222 -21.7311,-5.92666 -24.8356,-5.36222 -35.8422,-14.39332 -10.7245,-9.31333 -10.7245,-25.11776 0,-12.13555 7.0556,-21.73109 7.0555,-9.87777 19.4733,-15.23999 12.4178,-5.36222 28.2222,-5.36222 11.2889,0 22.0133,3.10444 10.7245,2.82222 18.9089,8.46666 9.3133,6.20889 9.3133,14.39332 0,4.51556 -2.8222,7.62 -2.54,3.10444 -6.2089,3.10444 -2.54,0 -5.08,-1.12889 -2.54,-1.12889 -6.7733,-3.66888 -7.62,-4.51556 -14.3933,-7.05555 -6.4911,-2.54 -16.3689,-2.54 -11.8533,0 -19.1911,5.07999 -7.0555,5.08 -7.0555,13.82888 0,7.90222 6.4911,12.41777 6.7733,4.23333 25.1177,8.18444 18.9089,3.9511 29.6333,9.0311 10.7245,5.07999 15.24,12.69999 4.7978,7.33777 4.7978,18.90887 0,18.34443 -15.5222,29.63331 -15.24,11.00666 -40.9222,11.00666 z" />
      <path
         id="path110"
         style="font-style:normal;font-variant:normal;font-weight:600;font-stretch:normal;font-size:282.222px;font-family:Nunito;-inkscape-font-specification:'Nunito Semi-Bold'"
         d="m 2437.2905,619.20054 q -7.62,0 -12.9822,-5.07999 -5.08,-5.08 -5.08,-12.98221 0,-7.90222 5.08,-12.98222 5.3622,-5.36221 12.9822,-5.36221 7.62,0 12.7,5.36221 5.08,5.08 5.08,12.98222 0,7.90221 -5.08,12.98221 -5.08,5.07999 -12.7,5.07999 z" />
    </g>
  </g>
</svg>
